<svg width="26" height="26" viewBox="0 0 26 26" fill="none" xmlns="http://www.w3.org/2000/svg">
<g clip-path="url(#clip0_1_4963)">
<path d="M13 17.0625C15.2437 17.0625 17.0625 15.2437 17.0625 13C17.0625 10.7563 15.2437 8.9375 13 8.9375C10.7563 8.9375 8.9375 10.7563 8.9375 13C8.9375 15.2437 10.7563 17.0625 13 17.0625Z" stroke="white" stroke-width="2" stroke-miterlimit="10"/>
<path d="M17.875 3.25H8.125C5.43261 3.25 3.25 5.43261 3.25 8.125V17.875C3.25 20.5674 5.43261 22.75 8.125 22.75H17.875C20.5674 22.75 22.75 20.5674 22.75 17.875V8.125C22.75 5.43261 20.5674 3.25 17.875 3.25Z" stroke="white" stroke-width="2" stroke-linecap="round" stroke-linejoin="round"/>
<path d="M19.4375 7.71875C19.4375 8.35733 18.9198 8.875 18.2812 8.875C17.6427 8.875 17.125 8.35733 17.125 7.71875C17.125 7.08017 17.6427 6.5625 18.2812 6.5625C18.9198 6.5625 19.4375 7.08017 19.4375 7.71875Z" fill="white" stroke="white" stroke-width="0.125"/>
</g>
<defs>
<clipPath id="clip0_1_4963">
<rect width="26" height="26" fill="white"/>
</clipPath>
</defs>
</svg>
