<svg width="21" height="20" viewBox="0 0 21 20" fill="none" xmlns="http://www.w3.org/2000/svg">
<path d="M4.51833 2.41677C4.51804 2.99141 4.2895 3.5424 3.88296 3.94852C3.47643 4.35465 2.92522 4.58264 2.35058 4.58236C1.77595 4.58207 1.22496 4.35352 0.818834 3.94699C0.412708 3.54046 0.184711 2.98924 0.184998 2.41461C0.185285 1.83997 0.413834 1.28899 0.820366 0.88286C1.2269 0.476734 1.77811 0.248736 2.35275 0.249024C2.92738 0.249311 3.47837 0.47786 3.8845 0.884392C4.29062 1.29092 4.51862 1.84214 4.51833 2.41677ZM4.58333 6.18677H0.249998V19.7501H4.58333V6.18677ZM11.43 6.18677H7.11833V19.7501H11.3867V12.6326C11.3867 8.66761 16.5542 8.29927 16.5542 12.6326V19.7501H20.8333V11.1593C20.8333 4.47511 13.185 4.72427 11.3867 8.00677L11.43 6.18677Z" fill="white"/>
</svg>
