<svg width="147" height="56" viewBox="0 0 147 56" fill="none" xmlns="http://www.w3.org/2000/svg">
<path d="M67.3904 49.3334H71.2185V34.8934H67.3904V49.3334ZM67.3904 32.6415H71.2185V29.2074H67.3904V32.6415Z" fill="#1C1C1C"/>
<path d="M73.6852 54.0623H77.5133V47.7008H77.5698C78.386 48.9393 79.709 49.7556 81.7356 49.7556C85.4512 49.7556 87.9845 46.8001 87.9845 42.1274C87.9845 37.6236 85.5356 34.4993 81.7075 34.4993C79.7371 34.4993 78.386 35.4282 77.4571 36.6947H77.3726V34.8934H73.6852V54.0623ZM80.9194 46.5748C78.6394 46.5748 77.4289 44.8579 77.4289 42.24C77.4289 39.6504 78.386 37.5955 80.7786 37.5955C83.143 37.5955 84.1001 39.5096 84.1001 42.24C84.1001 44.9704 82.8616 46.5748 80.9194 46.5748Z" fill="#1C1C1C"/>
<path d="M95.6209 49.7556C99.2238 49.7556 101.701 48.0104 101.701 45.1111C101.701 41.7333 99.0269 41.0578 96.6061 40.5512C94.5512 40.1289 92.6371 40.0162 92.6371 38.7778C92.6371 37.7363 93.6223 37.1733 95.1143 37.1733C96.7468 37.1733 97.732 37.7363 97.9008 39.2845H101.363C101.082 36.3852 98.9706 34.4993 95.1705 34.4993C91.8772 34.4993 89.2875 35.9911 89.2875 39.1155C89.2875 42.2681 91.8209 42.9719 94.4105 43.4786C96.3808 43.8725 98.2105 44.0134 98.2105 45.3927C98.2105 46.406 97.2535 47.0533 95.5645 47.0533C93.8476 47.0533 92.6653 46.3216 92.412 44.6607H88.8652C89.0905 47.729 91.4268 49.7556 95.6209 49.7556Z" fill="#1C1C1C"/>
<path d="M116.235 49.3333V34.8933H112.407V43.2251C112.407 45.1392 111.309 46.4904 109.508 46.4904C107.875 46.4904 107.115 45.5615 107.115 43.8725V34.8933H103.315V44.52C103.315 47.6725 105.117 49.7274 108.326 49.7274C110.352 49.7274 111.478 48.9674 112.463 47.6444H112.548V49.3333H116.235Z" fill="#1C1C1C"/>
<path d="M118.711 49.3334H122.54V40.9451C122.54 39.0311 123.581 37.7926 125.129 37.7926C126.537 37.7926 127.353 38.637 127.353 40.2696V49.3334H131.181V40.9451C131.181 39.0311 132.166 37.7926 133.771 37.7926C135.178 37.7926 135.995 38.637 135.995 40.2696V49.3334H139.823V39.6223C139.823 36.4696 138.106 34.4993 135.066 34.4993C133.236 34.4993 131.716 35.4563 130.731 37.0326H130.675C129.971 35.5126 128.507 34.4993 126.677 34.4993C124.679 34.4993 123.272 35.5126 122.483 36.8356H122.399V34.8934H118.711V49.3334Z" fill="#1C1C1C"/>
<path d="M67.4467 24.6008H71.2748V4.47485H67.4467V24.6008Z" fill="#1C1C1C"/>
<path d="M80.6352 25.0231C85.1109 25.0231 88.179 21.7016 88.179 17.3949C88.179 13.0882 85.1109 9.76672 80.6352 9.76672C76.1597 9.76672 73.0914 13.0882 73.0914 17.3949C73.0914 21.7016 76.1597 25.0231 80.6352 25.0231ZM80.6352 22.0957C78.2707 22.0957 76.976 20.2097 76.976 17.3949C76.976 14.58 78.2707 12.666 80.6352 12.666C82.9715 12.666 84.2945 14.58 84.2945 17.3949C84.2945 20.2097 82.9715 22.0957 80.6352 22.0957Z" fill="#1C1C1C"/>
<path d="M96.32 29.5269C98.4593 29.5269 100.317 29.0202 101.527 27.8942C102.597 26.909 103.245 25.5297 103.245 23.5031V10.1608H99.5571V11.6808H99.5008C98.6282 10.4704 97.3052 9.76672 95.5037 9.76672C91.8445 9.76672 89.2548 12.5253 89.2548 16.832C89.2548 21.1949 92.4074 23.7282 95.6164 23.7282C97.446 23.7282 98.5438 22.9964 99.3882 22.0394H99.4727V23.6156C99.4727 25.586 98.4312 26.6275 96.2637 26.6275C94.4903 26.6275 93.6741 25.9238 93.3645 25.0231H89.5644C89.9585 27.8379 92.3793 29.5269 96.32 29.5269ZM96.2637 20.6601C94.2934 20.6601 92.9985 19.2245 92.9985 16.7757C92.9985 14.3549 94.2934 12.8349 96.2356 12.8349C98.5438 12.8349 99.6696 14.6363 99.6696 16.7475C99.6696 18.8867 98.6845 20.6601 96.2637 20.6601Z" fill="#1C1C1C"/>
<path d="M112.55 25.0231C117.025 25.0231 120.093 21.7016 120.093 17.3949C120.093 13.0882 117.025 9.76672 112.55 9.76672C108.074 9.76672 105.006 13.0882 105.006 17.3949C105.006 21.7016 108.074 25.0231 112.55 25.0231ZM112.55 22.0957C110.185 22.0957 108.89 20.2097 108.89 17.3949C108.89 14.58 110.185 12.666 112.55 12.666C114.886 12.666 116.209 14.58 116.209 17.3949C116.209 20.2097 114.886 22.0957 112.55 22.0957Z" fill="#1C1C1C"/>
<path d="M123.449 19.0838H140V15.7904H123.449V19.0838Z" fill="#1C1C1C"/>
<path d="M141.214 32.4404C141.214 31.7926 141.739 31.2675 142.387 31.2675H144.732C145.38 31.2675 145.905 31.7926 145.905 32.4404C145.905 33.088 145.38 33.6132 144.732 33.6132H142.387C141.739 33.6132 141.214 33.088 141.214 32.4404Z" fill="#1C1C1C"/>
<path fill-rule="evenodd" clip-rule="evenodd" d="M28.7302 0C44.1942 0 56.7302 12.536 56.7302 28C56.7302 43.464 44.1942 56 28.7302 56C13.2663 56 0.730225 43.464 0.730225 28C0.730225 12.536 13.2663 0 28.7302 0ZM27.7182 2.09523C24.5239 2.54477 21.4823 5.11151 19.1212 9.40436C18.4363 10.6496 17.8183 12.0252 17.2798 13.5106C20.4902 12.7038 24.017 12.2282 27.7182 12.1546V2.09523ZM14.9133 14.1831C15.583 12.0814 16.4022 10.1478 17.3477 8.42891C18.5181 6.30083 19.9071 4.46313 21.4722 3.05168C12.9617 5.52332 6.25354 12.2315 3.78191 20.742C5.19335 19.1769 7.03106 17.7878 9.15914 16.6174C10.878 15.672 12.8116 14.8527 14.9133 14.1831ZM14.2408 16.5495C13.4341 19.76 12.9584 23.2868 12.8848 26.9879H2.82544C3.275 23.7936 5.84174 20.7519 10.1346 18.391C11.3798 17.7061 12.7555 17.0881 14.2408 16.5495ZM14.9094 26.9879C14.993 22.9488 15.5744 19.1568 16.5365 15.8063C19.887 14.8442 23.6792 14.2626 27.7182 14.1791V18.5511C26.2113 22.4087 23.1381 25.4817 19.2804 26.9879H14.9094ZM12.8848 29.0121H2.82544C3.275 32.2064 5.84174 35.2479 10.1346 37.609C11.3798 38.2939 12.7555 38.9119 14.2408 39.4505C13.4341 36.24 12.9584 32.7132 12.8848 29.0121ZM16.5365 40.1937C15.5744 36.8432 14.993 33.0512 14.9094 29.0121H19.2804C23.1381 30.5183 26.2115 33.5913 27.7182 37.4489V41.8209C23.6792 41.7374 19.887 41.1558 16.5365 40.1937ZM14.9133 41.8169C12.8116 41.1473 10.878 40.328 9.15914 39.3826C7.03106 38.2122 5.19335 36.8231 3.78191 35.258C6.25354 43.7685 12.9617 50.4767 21.4722 52.9483C19.9071 51.5368 18.5181 49.6992 17.3477 47.571C16.4022 45.8522 15.583 43.9186 14.9133 41.8169ZM27.7182 53.9048C24.5239 53.4552 21.4823 50.8885 19.1212 46.5956C18.4363 45.3505 17.8183 43.9747 17.2798 42.4894C20.4902 43.2961 24.017 43.7718 27.7182 43.8453V53.9048ZM35.9882 52.9483C37.5533 51.5368 38.9424 49.6992 40.1129 47.571C41.0582 45.8522 41.8775 43.9186 42.5471 41.8169C44.6488 41.1473 46.5825 40.328 48.3014 39.3826C50.4294 38.2122 52.2672 36.8231 53.6785 35.258C51.2069 43.7685 44.4987 50.4767 35.9882 52.9483ZM40.1807 42.4894C39.6421 43.9747 39.0241 45.3505 38.3393 46.5956C35.9783 50.8885 32.9367 53.4552 29.7423 53.9048V43.8453C33.4435 43.7718 36.9702 43.2961 40.1807 42.4894ZM43.2197 39.4505C44.7049 38.9119 46.0807 38.2939 47.3259 37.609C51.6187 35.2479 54.1854 32.2064 54.635 29.0121H44.5756C44.5021 32.7132 44.0263 36.24 43.2197 39.4505ZM42.5512 29.0121C42.4676 33.0512 41.886 36.8432 40.9239 40.1937C37.5735 41.1558 33.7814 41.7374 29.7423 41.8209V37.4521C31.2485 33.5931 34.3225 30.5187 38.1813 29.0121H42.5512ZM44.5756 26.9879H54.635C54.1854 23.7936 51.6187 20.7519 47.3259 18.391C46.0807 17.7061 44.7049 17.0881 43.2197 16.5495C44.0263 19.76 44.5021 23.2868 44.5756 26.9879ZM40.9239 15.8063C41.886 19.1568 42.4676 22.9488 42.5512 26.9879H38.1813C34.3225 25.4813 31.2485 22.4069 29.7423 18.5479V14.1791C33.7814 14.2626 37.5735 14.8442 40.9239 15.8063ZM42.5471 14.1831C44.6488 14.8527 46.5825 15.672 48.3014 16.6174C50.4294 17.7878 52.2672 19.1769 53.6785 20.742C51.2069 12.2315 44.4987 5.52332 35.9882 3.05168C37.5533 4.46313 38.9424 6.30083 40.1129 8.42891C41.0582 10.1478 41.8775 12.0814 42.5471 14.1831ZM29.7423 2.09523C32.9367 2.54477 35.9783 5.11151 38.3393 9.40436C39.0241 10.6496 39.6421 12.0252 40.1807 13.5106C36.9702 12.7038 33.4435 12.2282 29.7423 12.1546V2.09523Z" fill="#1C1C1C"/>
</svg>
