<svg width="24" height="24" viewBox="0 0 24 24" fill="none" xmlns="http://www.w3.org/2000/svg">
<g clip-path="url(#clip0_1_4955)">
<path fill-rule="evenodd" clip-rule="evenodd" d="M5.7 19.4C4.98392 19.4 4.29716 19.1155 3.79081 18.6092C3.28446 18.1028 3 17.4161 3 16.7V7.7C3 6.98392 3.28446 6.29716 3.79081 5.79081C4.29716 5.28446 4.98392 5 5.7 5H18.3C19.0161 5 19.7028 5.28446 20.2092 5.79081C20.7155 6.29716 21 6.98392 21 7.7V16.7C21 17.4161 20.7155 18.1028 20.2092 18.6092C19.7028 19.1155 19.0161 19.4 18.3 19.4H5.7ZM8.0625 8.798C7.97082 8.71972 7.86435 8.66065 7.7494 8.6243C7.63446 8.58796 7.51338 8.57508 7.39336 8.58642C7.27334 8.59777 7.15682 8.63311 7.05072 8.69036C6.94463 8.7476 6.85111 8.82557 6.77573 8.91965C6.70034 9.01373 6.64463 9.122 6.61189 9.23802C6.57915 9.35405 6.57006 9.47547 6.58515 9.59507C6.60024 9.71468 6.6392 9.83004 6.69973 9.9343C6.76026 10.0386 6.84111 10.1296 6.9375 10.202L10.3125 12.9029C10.7914 13.2863 11.3865 13.4952 12 13.4952C12.6135 13.4952 13.2086 13.2863 13.6875 12.9029L17.0625 10.2029C17.1548 10.129 17.2317 10.0377 17.2887 9.93414C17.3457 9.83057 17.3817 9.71678 17.3948 9.59928C17.4078 9.48177 17.3976 9.36285 17.3647 9.24931C17.3317 9.13576 17.2768 9.02981 17.2029 8.9375C17.129 8.84519 17.0377 8.76834 16.9341 8.71133C16.8306 8.65432 16.7168 8.61826 16.5993 8.60523C16.4818 8.59219 16.3629 8.60242 16.2493 8.63535C16.1358 8.66827 16.0298 8.72323 15.9375 8.7971L12.5625 11.4971C12.4029 11.6249 12.2045 11.6945 12 11.6945C11.7955 11.6945 11.5971 11.6249 11.4375 11.4971L8.0625 8.7971V8.798Z" fill="white"/>
</g>
<defs>
<clipPath id="clip0_1_4955">
<rect width="24" height="24" fill="white"/>
</clipPath>
</defs>
</svg>
