<svg width="24" height="24" viewBox="0 0 24 24" fill="none" xmlns="http://www.w3.org/2000/svg">
<g clip-path="url(#clip0_1_4951)">
<path fill-rule="evenodd" clip-rule="evenodd" d="M15.7702 20.001C14.6162 19.9585 11.3459 19.5066 7.92088 16.0824C4.49669 12.6574 4.04553 9.38786 4.00226 8.23311C3.93815 6.47334 5.28603 4.76405 6.84306 4.09652C7.03056 4.01556 7.23589 3.98473 7.43889 4.00707C7.6419 4.02941 7.83561 4.10414 8.00102 4.22393C9.28319 5.15831 10.1679 6.5719 10.9276 7.68338C11.0947 7.92758 11.1662 8.22474 11.1283 8.51823C11.0905 8.81173 10.946 9.08105 10.7224 9.27487L9.15898 10.436C9.08344 10.4906 9.03027 10.5707 9.00934 10.6615C8.98841 10.7523 9.00115 10.8476 9.04518 10.9297C9.39938 11.5732 10.0292 12.5316 10.7505 13.2528C11.4725 13.974 12.4758 14.6456 13.1641 15.0398C13.2505 15.0883 13.352 15.1018 13.448 15.0777C13.544 15.0535 13.6271 14.9935 13.6802 14.91L14.6979 13.361C14.885 13.1124 15.1611 12.9459 15.4682 12.8963C15.7753 12.8467 16.0897 12.9179 16.3455 13.0949C17.473 13.8755 18.7889 14.7449 19.7521 15.9782C19.8816 16.1448 19.964 16.3431 19.9906 16.5525C20.0173 16.7618 19.9872 16.9745 19.9035 17.1682C19.2328 18.7333 17.5355 20.0659 15.7702 20.001Z" fill="white"/>
</g>
<defs>
<clipPath id="clip0_1_4951">
<rect width="24" height="24" fill="white"/>
</clipPath>
</defs>
</svg>
