<svg width="16" height="16" viewBox="0 0 16 16" fill="none" xmlns="http://www.w3.org/2000/svg">
<path fill-rule="evenodd" clip-rule="evenodd" d="M11.7702 16.001C10.6162 15.9585 7.34587 15.5066 3.92088 12.0824C0.496694 8.65739 0.0455315 5.38786 0.00225835 4.23311C-0.06185 2.47334 1.28603 0.764047 2.84306 0.0965184C3.03056 0.0155551 3.23589 -0.0152701 3.43889 0.00706763C3.6419 0.0294054 3.83561 0.104139 4.00102 0.223934C5.28319 1.15831 6.16788 2.5719 6.92756 3.68338C7.09471 3.92758 7.16618 4.22474 7.12835 4.51823C7.09052 4.81173 6.94603 5.08105 6.72242 5.27487L5.15898 6.43604C5.08344 6.49058 5.03027 6.57069 5.00934 6.66148C4.98841 6.75226 5.00115 6.84756 5.04518 6.92967C5.39938 7.57316 6.02925 8.53158 6.75047 9.2528C7.47249 9.97402 8.47578 10.6456 9.16415 11.0398C9.25045 11.0883 9.35204 11.1018 9.44803 11.0777C9.54402 11.0535 9.62711 10.9935 9.68022 10.91L10.6979 9.36098C10.885 9.11244 11.1611 8.94593 11.4682 8.89634C11.7753 8.84675 12.0897 8.91791 12.3455 9.09493C13.473 9.87545 14.7889 10.7449 15.7521 11.9782C15.8816 12.1448 15.964 12.3431 15.9906 12.5525C16.0173 12.7618 15.9872 12.9745 15.9035 13.1682C15.2328 14.7333 13.5355 16.0659 11.7702 16.001Z" fill="white"/>
</svg>
